<?xml version="1.0" standalone="no"?>
<!DOCTYPE svg PUBLIC "-//W3C//DTD SVG 20010904//EN"
 "http://www.w3.org/TR/2001/REC-SVG-20010904/DTD/svg10.dtd">
<svg version="1.0" xmlns="http://www.w3.org/2000/svg"
 width="866.000000pt" height="866.000000pt" viewBox="0 0 866.000000 866.000000"
 preserveAspectRatio="xMidYMid meet">
<metadata>
Created by potrace 1.11, written by Peter Selinger 2001-2013
</metadata>
<g transform="translate(0.000000,866.000000) scale(0.100000,-0.100000)"
fill="#000000" stroke="none">
<path d="M4260 6403 c-41 -7 -81 -11 -89 -8 -7 3 -20 0 -29 -7 -14 -12 -37
-17 -85 -19 -10 0 -38 -9 -63 -20 -25 -10 -54 -19 -64 -19 -11 0 -40 -11 -67
-25 -26 -14 -53 -23 -60 -21 -7 3 -17 -3 -23 -14 -6 -11 -17 -17 -25 -14 -8 3
-26 -4 -41 -15 -15 -12 -33 -21 -40 -21 -8 0 -14 -4 -14 -10 0 -5 -8 -10 -18
-10 -10 0 -28 -9 -40 -20 -12 -11 -26 -20 -32 -20 -14 0 -72 -41 -83 -57 -4
-7 -14 -13 -22 -13 -8 0 -20 -8 -27 -18 -7 -10 -25 -26 -40 -36 -20 -13 -27
-14 -32 -4 -3 7 -4 4 -1 -7 4 -15 -3 -24 -25 -33 -17 -8 -28 -17 -25 -22 3 -4
-6 -11 -20 -14 -14 -4 -25 -11 -25 -16 0 -5 -31 -42 -70 -81 -38 -39 -70 -74
-70 -79 0 -5 -9 -12 -20 -15 -11 -3 -20 -14 -20 -23 0 -10 -9 -23 -20 -30 -11
-7 -20 -21 -20 -32 0 -10 -6 -23 -12 -27 -7 -4 -19 -17 -26 -28 -7 -11 -21
-34 -32 -51 -24 -37 -62 -56 -94 -48 -31 7 -98 -11 -119 -33 -9 -10 -29 -33
-43 -51 -20 -25 -33 -32 -57 -30 -43 2 -57 15 -57 52 0 40 -47 91 -91 100 -51
10 -277 7 -284 -4 -3 -5 -15 -15 -26 -20 -16 -9 -21 -7 -29 14 -14 39 -91 59
-235 61 -87 2 -126 -1 -142 -11 -25 -16 -69 -19 -77 -5 -3 5 -43 14 -88 21
-46 6 -146 27 -224 46 -77 19 -154 34 -170 34 -16 0 -61 7 -99 15 -208 45
-415 89 -455 95 -25 4 -79 15 -120 24 -199 45 -251 51 -280 34 -11 -7 -20 -21
-20 -32 0 -10 -16 -81 -35 -157 -37 -147 -41 -184 -26 -252 5 -23 15 -69 21
-102 12 -58 17 -85 40 -210 7 -33 16 -80 21 -105 19 -94 38 -200 49 -270 4
-30 15 -84 23 -120 8 -36 24 -123 36 -195 13 -71 27 -146 31 -165 5 -19 19
-87 30 -150 12 -63 35 -185 51 -270 17 -85 32 -168 34 -184 2 -16 9 -52 15
-80 16 -72 26 -124 50 -261 12 -66 23 -129 25 -141 3 -11 14 -33 26 -47 28
-37 78 -35 174 4 11 4 44 15 74 23 29 9 59 19 65 24 6 5 31 14 56 22 104 30
178 54 225 71 28 10 59 20 70 22 11 2 31 9 45 14 14 6 43 16 65 24 22 7 44 17
49 21 6 4 21 8 35 8 13 0 32 6 40 13 16 13 65 29 126 42 17 4 44 12 60 19 17
7 66 24 110 39 133 42 267 88 319 108 27 11 59 19 72 19 12 0 25 4 28 9 3 4
35 17 71 27 36 10 65 22 65 26 0 5 11 8 25 8 14 0 34 5 45 10 11 6 29 15 40
20 11 5 31 10 45 10 14 0 33 4 43 10 20 11 114 42 116 38 27 -48 39 -79 33
-84 -3 -4 3 -18 13 -32 11 -13 20 -31 20 -38 0 -8 4 -22 9 -32 4 -9 23 -48 41
-87 17 -38 36 -77 41 -85 5 -8 15 -26 21 -40 7 -14 16 -28 21 -31 10 -7 30
-41 46 -76 6 -12 19 -28 31 -35 11 -7 20 -19 20 -26 0 -7 7 -15 15 -18 8 -4
15 -15 15 -26 0 -12 10 -31 23 -43 12 -12 33 -35 46 -51 45 -56 92 -104 100
-104 5 0 19 -16 32 -35 13 -19 32 -37 41 -40 9 -3 37 -26 63 -50 25 -25 52
-45 59 -45 7 0 19 -11 26 -25 7 -14 19 -25 26 -25 22 0 74 -34 80 -53 4 -12
13 -17 23 -14 10 2 23 -4 30 -14 6 -11 20 -19 30 -19 10 0 21 -7 25 -15 3 -8
14 -15 24 -15 19 0 83 -30 107 -50 8 -6 18 -9 23 -6 6 3 18 -6 27 -20 13 -20
19 -23 25 -13 7 10 14 11 32 2 26 -13 75 -26 98 -28 8 0 25 -6 36 -12 12 -7
23 -10 26 -8 2 3 28 -4 58 -15 29 -11 64 -17 77 -14 14 4 23 2 23 -6 0 -6 10
-10 23 -9 12 2 31 -2 43 -8 12 -7 26 -8 34 -3 8 5 21 5 30 0 9 -5 22 -5 30 0
8 5 19 6 24 2 16 -10 106 -11 112 -1 3 5 13 5 25 -1 11 -6 25 -7 32 -3 6 4 37
7 67 8 30 0 61 4 68 8 7 5 21 6 31 2 11 -3 22 -1 26 5 4 7 18 9 32 5 14 -3 31
-1 39 6 7 6 21 8 30 5 8 -3 22 1 31 10 9 8 22 13 31 9 8 -3 21 0 28 6 8 7 22
13 32 14 9 1 25 5 36 10 12 5 21 3 26 -5 6 -9 11 -7 19 9 8 14 21 21 41 21 17
0 30 5 30 10 0 6 11 10 23 10 13 0 32 9 42 20 10 11 21 17 26 15 4 -3 14 2 22
10 9 8 25 15 36 15 12 0 26 9 33 20 7 11 18 20 24 20 21 0 111 51 145 81 26
23 42 29 79 29 25 0 50 -4 56 -10 5 -5 27 -10 49 -11 22 -2 47 -6 55 -10 18
-9 181 -48 230 -55 19 -3 48 -9 64 -15 16 -5 42 -9 57 -9 15 0 31 -4 34 -10 3
-5 28 -10 55 -10 27 0 51 -4 54 -9 3 -5 23 -11 43 -14 21 -3 65 -13 98 -21 33
-9 83 -21 110 -27 120 -24 152 -30 190 -36 22 -3 44 -9 49 -14 6 -5 21 -9 35
-9 13 0 38 -4 55 -9 17 -6 58 -15 91 -21 33 -6 76 -16 95 -22 19 -7 54 -15 78
-20 23 -4 62 -12 87 -18 110 -24 133 -29 180 -39 28 -6 77 -18 111 -26 33 -8
81 -18 105 -21 24 -4 52 -10 61 -15 9 -5 32 -9 52 -9 19 0 38 -4 41 -10 3 -5
21 -10 39 -10 17 0 36 -4 42 -9 5 -5 28 -12 51 -15 24 -3 70 -13 104 -21 34
-9 76 -18 92 -20 41 -5 127 -25 155 -36 13 -5 34 -9 47 -9 13 0 27 -4 30 -10
3 -5 28 -10 55 -10 26 0 50 -4 52 -9 2 -5 23 -10 48 -11 65 -3 84 -1 77 7 -4
3 -1 13 6 21 13 16 19 291 31 1442 3 311 8 621 11 690 15 342 17 684 5 724
-23 78 -86 217 -103 228 -17 11 -75 10 -82 -2 -3 -5 -17 -10 -30 -10 -26 0
-109 -24 -137 -40 -10 -6 -31 -10 -48 -10 -17 0 -38 -4 -48 -9 -9 -5 -55 -19
-102 -31 -47 -12 -95 -26 -108 -31 -13 -5 -34 -9 -47 -9 -13 0 -27 -4 -30 -10
-3 -5 -14 -10 -24 -10 -10 0 -49 -9 -87 -21 -38 -11 -94 -27 -124 -36 -88 -24
-124 -35 -145 -44 -11 -5 -33 -11 -50 -14 -63 -10 -131 -29 -145 -41 -28 -23
-105 -37 -202 -38 -92 -1 -98 -3 -117 -28 -25 -31 -61 -41 -158 -42 -56 -1
-76 -5 -95 -21 -13 -11 -33 -26 -45 -33 -20 -10 -23 -10 -23 4 0 13 -6 11 -25
-10 -13 -14 -32 -26 -42 -26 -10 0 -31 -7 -47 -15 -15 -8 -43 -15 -62 -15 -18
0 -36 -4 -39 -10 -3 -5 -14 -10 -25 -10 -19 0 -29 34 -50 170 -11 73 -24 125
-44 183 -9 26 -15 51 -12 56 3 5 -1 14 -9 21 -8 7 -15 21 -15 30 0 10 -8 33
-17 52 -9 18 -22 45 -30 60 -7 14 -13 33 -13 42 0 9 -4 16 -10 16 -5 0 -10 10
-10 21 0 12 -8 29 -18 38 -11 9 -22 28 -25 42 -4 14 -18 42 -32 63 -14 20 -25
43 -25 51 0 8 -9 20 -20 27 -11 7 -20 19 -20 27 0 7 -9 22 -21 32 -11 10 -21
24 -23 31 -1 7 -10 23 -21 35 -11 11 -29 33 -40 47 -11 15 -37 46 -57 69 -21
23 -38 45 -38 49 0 11 -74 77 -92 84 -10 3 -18 12 -18 20 0 8 -11 19 -24 24
-13 5 -26 14 -28 20 -2 6 -10 12 -18 13 -8 2 -28 15 -44 30 -16 15 -33 27 -37
27 -5 0 -9 6 -9 13 0 6 -15 21 -32 32 -18 11 -44 28 -58 37 -14 10 -35 22 -47
28 -13 5 -23 14 -23 20 0 5 -11 10 -25 10 -14 0 -25 4 -25 8 0 9 -75 45 -96
46 -6 1 -18 6 -25 12 -38 30 -111 60 -201 85 -27 7 -48 16 -48 19 0 3 -26 6
-57 7 -33 2 -63 9 -73 18 -9 8 -19 13 -22 10 -3 -3 -36 0 -74 6 -98 17 -373
18 -464 2z"/>
</g>
</svg>
